<svg id="Layer_1" data-name="Layer 1" xmlns="http://www.w3.org/2000/svg" viewBox="0 0 159.87 65.02"><title>header-logo</title><path d="M157.94,49.37c-1.24.16-2.52.27-3.76.38v.06C151.76,67.17,128,70,127.4,56.41c-.27-6.17,11.59-8,23.4-9.09.43-11.09-15.9,5.67-21.61-4.6-5-9,14.63-17.94,16.73-16.1,6.44,5.64,3.4,6.62-1.38,8.34-9.49,3.41-5.79,4.11-4.51,3.73,7.57-2.25,14.37-1,14.31,8.32,1.29-.11,2.52-.16,3.76-.27C160.4,46.51,160.56,49.16,157.94,49.37Zm-7.51.76c-9.12,1-17,2.44-16.15,5.35C136,61.06,147.85,62.3,150.42,50.13Z" transform="translate(0 0.02)"/><path d="M117.68,44.92c-.68,0-.7-6,.11-11.69,1-7,11.94-3.36,9.09-1.91s-4.43,8.72-6.27,12.09C120,44.57,118,44.94,117.68,44.92Z" transform="translate(0 0.02)"/><path d="M42.1,21c2.38,4.87-4.94,8.17-8.29,4.52-1.4-1.56-.76-4.56,2.64-6.19C38.15,18.49,40.52,17.73,42.1,21Z" transform="translate(0 0.02)"/><path d="M57.06,18.86c2.58,5.3-5.38,8.9-9,4.92-1.52-1.69-.82-5,2.87-6.74C52.75,16.13,55.34,15.31,57.06,18.86Z" transform="translate(0 0.02)"/><path d="M28.88,61.67C21,67,14.66,65.82,16.67,50.82c1.45-10.9-.95-11.52-3.12-9.44-2.85,2.7-4.63,9.72-4.68,16.41.28,1.69.61,3.31,1,4.78.33,1.63-4.91,3.32-8,1C.84,62.79,0,54.87,0,44.13,0,35.31,1.17,29.24,2.23,29c8-2.19,9.31,1.35,7.58,8a47.64,47.64,0,0,0-1.4,7.92c1.67-4.66,4.07-8.49,6.8-10.17,7.42-4.66,13.6-2.47,12.43,6.8-2,16.58-2.17,18.83-.39,17.53C29.5,57.45,30.94,60.26,28.88,61.67Z" transform="translate(0 0.02)"/><path d="M55,59.59c-2.17,3.48-7.81,5.17-13.22,4.55C34,63.3,29.22,56.39,31.06,46c2-11.19,18.07-18.32,23.2-10.34,3.74,5.79-2.17,16-11.6,19.78l-.5.17c2,5.17,6.58,7.48,11,2.36C55.32,55.65,56.82,56.67,55,59.59Zm-13.6-7.42c5.85-4.16,7.81-13.32,6.19-15.9S42.49,37.78,41.32,48A20.61,20.61,0,0,0,41.38,52.17Z" transform="translate(0 0.02)"/><path d="M83.09,45a12.25,12.25,0,0,1-6,5.06c-2.4.73-5.18.06-5.18-2.7a6.07,6.07,0,0,1,3.62-4.72c-.17-1.91-1.39-2.42-2.29-1.69-3.35,2.59-7.42,12.25-6.36,19.22a1.59,1.59,0,0,1,.06.51c.17.62.33,1.24.56,1.85.56,1.57-4.91,3.32-8,1-1.06-.79-1.62-7-1.62-17.7,0-8.82,2-16.64,3-16.92,6.41-1.74,10.15,1.29,8.14,7.25a64.94,64.94,0,0,0-2.84,10.4c2.45-6.69,6.52-12.87,9.81-14.5,5.86-2.92,10.09,1,8.87,7.81a1.72,1.72,0,0,0-.11.45c-.06.56-.57,2.3-.39,1.74A10.62,10.62,0,0,1,83.09,45Z" transform="translate(0 0.02)"/><path d="M113.21,26.16c-.44,2.3-.84,4.83-1.11,7.53-1.06,10.06-.61,19,.61,23,.73,2.14,3.46,4.95,6.08,2,2.84-3.2,6-1.35,2.17,2.42-2.34,2.31-6.69,3.88-11,3.43-3.12-.39-5-2.42-6.13-5.51a8.71,8.71,0,0,1-1.56,2.3,9.28,9.28,0,0,1-8,3.09c-6.64-.73-10.54-7.92-8.7-18.15,2-10.79,11.32-14.73,16.73-11.86.11-1.35.22-2.7.33-4.1.06-.28.06-.56.11-.84-1.56.34-3.23.67-5,1-24,4-15.72-15.57-9.87-20.68,6.64-5.73,7.36-1.86,5.3-.56-3.68,2.36-5.3,15.9,5.24,15.9a47,47,0,0,0,5-.28C106.68,6.49,116.66-2.39,124.75.53,133.73,3.79,132.78,18.07,113.21,26.16ZM102.28,50.55c-.22-3.54-.22-7.53-.17-11.64,0-.51.06-1,.06-1.46-3.35-1.52-6.64,3.65-7.47,10.79C93.75,56.62,97.48,61.06,99.6,59,101.22,57.41,102.06,52.24,102.28,50.55ZM126.36,7.39c-1.78-2.64-8.31.56-12.1,14.33C123.8,17.17,127.59,9.3,126.36,7.39Z" transform="translate(0 0.02)"/></svg>